<svg id="Layer_1" data-name="Layer 1" xmlns="http://www.w3.org/2000/svg" viewBox="0 0 387.51 124.33"><defs><style>.cls-1{fill:#b9592d;}</style></defs><title>Studio 9 (napis)</title><path class="cls-1" d="M120.48,502.65a175.05,175.05,0,0,0,46.25-47.95,172.33,172.33,0,0,0,9.41-16.44h-4.32a327.16,327.16,0,0,1,18.94,31q4.25,7.89,8,16c.94,2,2.52,4.57,2.26,6.89-.24,2.1-3,2.49-4.66,2.9-2.82.69-8.4,1.87-10.08-1.48-1-2.09.12-4.63,1.15-6.49a63.54,63.54,0,0,1,4.74-7.1c6.92-9.43,15.16-17.8,22.28-27.07,7.69-10,14-21.16,15.68-33.82a2.48,2.48,0,0,0-2.17-2.46,2.51,2.51,0,0,0-2.74,1.79,142.33,142.33,0,0,0-6.72,48.18c.14,4,.45,8,.93,11.94.38,3.17.9,7.27,4.37,8.55,3.84,1.42,6.41-2.15,8.27-4.91a66.09,66.09,0,0,0,5.38-9.66,69.84,69.84,0,0,0,6.08-24.77h-5q-.42,9.84-.15,19.69c.11,3.38.27,6.75.5,10.12.17,2.44.33,5,1.48,7.19a6.85,6.85,0,0,0,6.24,3.8,9.44,9.44,0,0,0,6.39-3.5,26.22,26.22,0,0,0,4.23-7.55,70.6,70.6,0,0,0,2.84-8.38,71.88,71.88,0,0,0,2.4-20.75,2.5,2.5,0,0,0-5,0q-.37,12.63.32,25.24c.3,5.28,1.18,13.36,7.74,14.42a2.64,2.64,0,0,0,2.82-1.15c5.66-9,7.54-19.76,12.59-29.09,4-7.48,10.74-14.5,19.94-13.53a11.51,11.51,0,0,1,9.49,6.18,2.54,2.54,0,0,0,3.43.9,2.57,2.57,0,0,0,.89-3.42c-3.87-8.91-14.84-12.28-23.76-10.13-10.45,2.51-16.42,12.67-16.92,22.91a30.42,30.42,0,0,0,3.38,15.58c2.54,4.82,7.14,9.23,12.53,10.59a12.36,12.36,0,0,0,8.32-.74c2.81-1.3,4.86-3.74,6.6-6.21a56.75,56.75,0,0,0,7.85-17.6,183.51,183.51,0,0,0,4.35-22.55q1.79-12.27,2.61-24.64c.18-2.77-4.47-3.47-4.91-.67a351.74,351.74,0,0,0-4.28,50.82c0,4.22-.11,8.47.11,12.68.16,3.11,1.25,6.58,4.76,7.2,3.77.67,6.27-2.89,7.49-5.94a114.61,114.61,0,0,0,3.78-11.6,158.66,158.66,0,0,0,5.07-27h-5a157.89,157.89,0,0,0,.28,18.2c.22,3,.54,6.05.93,9.06a45,45,0,0,0,1.41,8,11.36,11.36,0,0,0,3.5,5.54c1.73,1.34,5.23,2.26,6.65,0a26.74,26.74,0,0,0,1.72-3.77c.56-1.31,1.11-2.62,1.63-3.95,1.06-2.73,2-5.51,2.85-8.32a109.66,109.66,0,0,0,3.77-18.92l-4.91.67c1.31,8.32-1.41,16.8.79,25.06,1.78,6.66,6.53,12.71,13.83,13.21s13.33-5.39,16.55-11.31c3.79-7,4.7-15.52,3.4-23.26a29.91,29.91,0,0,0-11.57-19.17c-5.62-4.18-13.72-6.55-20.53-4.07a11.53,11.53,0,0,0-7.33,7.21,13,13,0,0,0,1,9.36c3.3,7,11,9.66,18.38,8.87a50,50,0,0,0,13.4-3.69,95.88,95.88,0,0,0,12.15-5.9,94.59,94.59,0,0,0,21-16.56c2.22-2.33-1.31-5.87-3.53-3.54a89.1,89.1,0,0,1-34.53,22.54c-5.77,2-13.63,4.08-19.09.13-3.38-2.46-6.05-8.2-2.81-11.79,3.91-4.33,11.73-2.67,16.2-.28a23.92,23.92,0,0,1,11.31,13.55A33,33,0,0,1,373,467.9c-1.7,5.12-5.61,10.89-11.13,12.3-6.35,1.62-10.48-4.32-11.82-9.7-.9-3.62-.72-7.37-.51-11.05a63.36,63.36,0,0,0-.19-13.63A2.47,2.47,0,0,0,346.6,444a2.54,2.54,0,0,0-2.16,2.45,102.57,102.57,0,0,1-9.28,32.44l1.49-1.15c-.49.09-.91-.31-1.3-.79a8.8,8.8,0,0,1-1.48-3.32,71.48,71.48,0,0,1-1.51-10.42,157.92,157.92,0,0,1-.66-22.6,2.53,2.53,0,0,0-2.5-2.5,2.56,2.56,0,0,0-2.5,2.5A150.11,150.11,0,0,1,323,461.9q-1.34,5.34-3.05,10.57-.75,2.29-1.58,4.57c-.29.81-1,2.88-2,3.14-.38.11-.45-.24-.6-.79a19.5,19.5,0,0,1-.27-4.58q-.09-5.6,0-11.19.17-11.19,1.07-22.36,1-12.78,3-25.45l-4.91-.66a285.69,285.69,0,0,1-5,38.22,79.58,79.58,0,0,1-4.77,16.23,45.9,45.9,0,0,1-4,7.21c-1.36,2-3,4.17-5.36,5.07-4.25,1.61-8.66-1.42-11.37-4.46a22.11,22.11,0,0,1-5.06-12.11c-1-8.29,2.07-18,10.19-21.71,7.4-3.35,17.64-1,21,6.86l4.32-2.52c-4.21-8.72-15.81-10.56-24-7C280.62,445.38,275.56,456.33,272,466c-2.31,6.26-4.36,12.64-7.93,18.33l2.83-1.15c-2-.32-2.83-2.07-3.35-3.93a38.35,38.35,0,0,1-.86-8.49q-.53-11.21-.18-22.41h-5c.31,10.3-1.58,21.17-6.24,30.43-.91,1.79-4.83,7.33-6.59,3.34-.86-2-.75-4.46-.88-6.55q-.25-4.22-.37-8.43-.28-9.71.15-19.41c.14-3.23-4.81-3.2-5,0a64.21,64.21,0,0,1-4.23,19.44,62.32,62.32,0,0,1-4.2,8.71c-.82,1.42-1.7,2.81-2.62,4.16-.26.38-1.43,2.46-2.06,2.35-.22,0-.63-1.63-.68-1.87a38.32,38.32,0,0,1-.63-4.91c-.36-3.62-.58-7.26-.66-10.89a137.39,137.39,0,0,1,1.18-21.26,138.92,138.92,0,0,1,5.41-23.73l-4.91-.66c-1.57,11.68-7.95,22.22-15,31.37-7.82,10.1-16.9,19.17-24.17,29.71-3.14,4.58-7.18,10.89-3.67,16.38,2.85,4.44,8.56,4.57,13.23,3.79A19.53,19.53,0,0,0,202.7,498a7.45,7.45,0,0,0,3.27-7.43c-.38-3-1.82-5.66-3.08-8.33q-2.07-4.41-4.28-8.76a328.36,328.36,0,0,0-22.47-37.78c-1-1.44-3.42-1.8-4.32,0A170.15,170.15,0,0,1,132.34,487,166.74,166.74,0,0,1,118,498.33a2.57,2.57,0,0,0-.9,3.42,2.52,2.52,0,0,0,3.42.9Z" transform="translate(-116.73 -378.68)"/><path class="cls-1" d="M330,429.51c3.22,0,3.23-5,0-5s-3.22,5,0,5Z" transform="translate(-116.73 -378.68)"/><path class="cls-1" d="M327,428a3.43,3.43,0,0,0,1.4,1.35,3.76,3.76,0,0,0,1.94.46,3.89,3.89,0,0,0,1.88-.56,3.74,3.74,0,0,0,1.12-1.12,3.54,3.54,0,0,0,.44-.92,4,4,0,0,0,.06-2.08,3.88,3.88,0,0,0-2.67-2.87,4.13,4.13,0,0,0-2.15-.07,3.47,3.47,0,0,0-1.38.56,4.14,4.14,0,0,0-1.33,1.4,4.43,4.43,0,0,0-.54,1.87,4.73,4.73,0,0,0,.6,2.57,3.92,3.92,0,0,0,.83,1,4.29,4.29,0,0,0,1.66.94,4.14,4.14,0,0,0,2,0,4,4,0,0,0,1-.37,1.9,1.9,0,0,0,.39-.23,5,5,0,0,0,1.46-1.53,5.92,5.92,0,0,0,.42-1,5,5,0,0,0,.18-1.07,4.19,4.19,0,0,0-.1-1.06,4.08,4.08,0,0,0-.37-1,1.85,1.85,0,0,0-.65-.71,1.78,1.78,0,0,0-.85-.44,1.86,1.86,0,0,0-1-.05,1.9,1.9,0,0,0-.93.3,2.48,2.48,0,0,0-1.15,1.49l-.09.67a2.43,2.43,0,0,0,.34,1.26l0,0-.25-.6a1.8,1.8,0,0,1,.1.4l-.09-.67a1.62,1.62,0,0,1,0,.44l.09-.66a2.52,2.52,0,0,1-.13.47l.25-.6a2.2,2.2,0,0,1-.27.47l.39-.51a2.27,2.27,0,0,1-.41.41l.51-.39a2.67,2.67,0,0,1-.43.25l.6-.25a2.09,2.09,0,0,1-.43.11l.67-.08a1.88,1.88,0,0,1-.41,0l.66.09a1.61,1.61,0,0,1-.36-.1l.6.25a2.27,2.27,0,0,1-.34-.19l.51.39a2.06,2.06,0,0,1-.33-.33l.39.5a1.86,1.86,0,0,1-.25-.43l.25.59a2.23,2.23,0,0,1-.16-.56l.09.66a2,2,0,0,1,0-.54l-.09.67a2.72,2.72,0,0,1,.13-.49l-.25.6a1.68,1.68,0,0,1,.2-.34l-.39.51a1.79,1.79,0,0,1,.28-.27l-.5.39a1.62,1.62,0,0,1,.36-.21l-.6.25a1.69,1.69,0,0,1,.44-.12l-.66.09a1.68,1.68,0,0,1,.5,0l-.66-.08a1.59,1.59,0,0,1,.39.1l-.59-.25a1.44,1.44,0,0,1,.31.19l-.5-.39a1.81,1.81,0,0,1,.24.24l-.4-.51a1.81,1.81,0,0,1,.2.33l-.26-.59a1.56,1.56,0,0,1,.1.37l-.08-.67a2.06,2.06,0,0,1,0,.43l.09-.67a2,2,0,0,1-.09.33l.25-.6a1.64,1.64,0,0,1-.16.29l.39-.51a1.26,1.26,0,0,1-.2.2l.51-.39a1.12,1.12,0,0,1-.24.13l.6-.25a1.33,1.33,0,0,1-.34.1l.67-.09h-.39l.66.09-.33-.09.6.25a1.1,1.1,0,0,1-.26-.15l.5.39a1.7,1.7,0,0,1-.19-.19l.4.51-.09-.13a2.52,2.52,0,0,0-1.49-1.15,1.89,1.89,0,0,0-1-.05,2,2,0,0,0-.93.3,2.53,2.53,0,0,0-1.15,1.49A2.69,2.69,0,0,0,327,428Z" transform="translate(-116.73 -378.68)"/><path class="cls-1" d="M209,436.71q24.53-2.46,48.91-6.12a2.53,2.53,0,0,0,1.75-3.08,2.57,2.57,0,0,0-3.08-1.74q-23.72,3.56-47.58,5.94a2.57,2.57,0,0,0-2.5,2.5,2.51,2.51,0,0,0,2.5,2.5Z" transform="translate(-116.73 -378.68)"/><path class="cls-1" d="M330.58,428.35c3.22,0,3.23-5,0-5s-3.22,5,0,5Z" transform="translate(-116.73 -378.68)"/><path class="cls-1" d="M496.3,415.43a26.07,26.07,0,0,1-17.54,17.32,24.08,24.08,0,0,1-23.53-5.8c-6.17-5.82-9.57-14.44-7.74-22.87a26.53,26.53,0,0,1,15.72-18.83c4.7-1.84,10.16-2.33,14.9-.35,4.2,1.76,7.55,5.24,10.09,8.93,5.77,8.39,9.05,18.6,10.35,28.64A92,92,0,0,1,497,454c-2.26,10.25-5.87,20.48-12.2,29-5.84,7.83-14.85,14.13-24.79,14.95-8.66.72-17.69-3.13-22.28-10.73a18.86,18.86,0,0,1-2.31-5.92c-.66-3.15-5.48-1.82-4.82,1.33,2.13,10.13,11.23,17.81,21.17,19.82,11.18,2.27,22.59-2.29,30.89-9.72,8.64-7.74,13.84-18.66,17.14-29.6a101.31,101.31,0,0,0,4.32-34.94,77,77,0,0,0-9.32-33.22,37.15,37.15,0,0,0-10.47-12.22,22.83,22.83,0,0,0-17-3.7c-10.12,1.55-18.84,9-22.83,18.3a28.9,28.9,0,0,0,3.14,28.47c5.87,8.11,15.42,13.57,25.6,13a31.67,31.67,0,0,0,25-15.26,28.89,28.89,0,0,0,2.88-6.74c.89-3.1-3.93-4.42-4.82-1.33Z" transform="translate(-116.73 -378.68)"/></svg>